<svg width="400" height="324" viewBox="0 0 400 324" fill="none" xmlns="http://www.w3.org/2000/svg">
<path fill-rule="evenodd" clip-rule="evenodd" d="M293.871 97.6721C320.414 94.2969 347.549 97.062 369.619 113.706C384.54 124.957 393.389 140.447 397.027 158.602C405.193 199.326 388.428 237.813 359.07 265.657C348.956 275.253 338.389 284.259 326.671 291.829C314.736 299.535 302.122 305.919 288.799 310.901C202.21 343.289 101.533 310.077 45.9208 237.679C37.2647 226.409 29.7612 214.439 23.3601 201.746C14.4423 184.063 8.1051 165.501 4.17823 146.128C2.32972 137.005 1.10231 127.779 0.532753 118.462C0.240327 113.712 -0.0626611 108.943 0.0112731 104.213C0.831486 51.6736 37.1341 10.2248 89.1148 1.35741C98.6947 -0.277353 108.228 -0.482278 117.887 0.997977C130.539 2.93856 141.533 8.363 151.756 15.758C157.017 19.5666 162.113 23.5424 166.546 28.3048C172.615 34.8217 177.993 41.8652 182.991 49.2349C200.141 74.4987 215.527 106.101 250.885 104.92C265.184 104.441 279.476 99.5023 293.871 97.6721Z" fill="#D1BCB5"/>
</svg>
