<svg class="mbs-blob-4" viewBox="0 0 410 297" fill="none"
	xmlns="http://www.w3.org/2000/svg">
	<g clip-path="url(#clip0_3_18)">
		<path fill-rule="evenodd" clip-rule="evenodd" d="M405.896 66.1863C405.827 65.8783 405.756 65.573 405.683 65.2677C396.6 26.7703 365.932 -2.06171 325.292 0.115631C276.05 2.75565 244.794 46.2957 202.35 64.2397C172.458 76.877 140.584 77.393 108.996 82.237C48.8928 91.453 -31.3233 154.869 12.622 222.508C31.7158 251.889 66.833 233.972 93.734 229.55C117.663 225.62 138.316 231.224 158.358 244.404C208.002 277.048 238.042 315.726 300.868 285.87C315.622 278.857 328.528 269.073 340.476 258.029C388.092 214.013 420.608 130.624 405.896 66.1863Z" fill="#875242"/>
	</g>
	<defs>
		<clipPath id="clip0_3_18">
			<rect width="409.466" height="296.578" fill="white"/>
		</clipPath>
	</defs>
</svg>
