<svg width="19" height="20" viewBox="0 0 19 20" fill="none"
	xmlns="http://www.w3.org/2000/svg">
	<path d="M11.5272 3.91943V3.20264C11.5322 2.36645 10.5629 2.05054 9.86435 1.95397V0.357168C9.86435 0.345514 9.86374 0.333805 9.86257 0.322151C9.86139 0.310552 9.85966 0.298953 9.85732 0.287518C9.85503 0.276028 9.85213 0.264702 9.84867 0.253486C9.84521 0.242325 9.84119 0.231273 9.83661 0.220494C9.83204 0.209661 9.82696 0.199101 9.82132 0.188815C9.81568 0.178474 9.80955 0.168462 9.80296 0.158723C9.79632 0.148984 9.78917 0.139628 9.78164 0.1306C9.77405 0.121518 9.76607 0.112873 9.75764 0.104612C9.74916 0.0963499 9.74034 0.0884712 9.73113 0.0810849C9.72192 0.073644 9.71232 0.0666954 9.70239 0.0601845C9.69245 0.0536737 9.68224 0.0476552 9.67175 0.0421839C9.6612 0.0366578 9.65043 0.0316242 9.63937 0.0271925C9.62838 0.022706 9.61716 0.0187666 9.60572 0.0153744C9.59433 0.0119822 9.58273 0.0091371 9.57106 0.00683915C9.55934 0.00454119 9.54756 0.00284508 9.53568 0.00169611C9.52379 0.000547136 9.5119 0 9.49996 0C9.48801 0 9.47613 0.000547136 9.46424 0.00169611C9.45235 0.00284508 9.44057 0.00454119 9.42885 0.00683915C9.41719 0.0091371 9.40558 0.0119822 9.39419 0.0153744C9.38275 0.0187666 9.37153 0.022706 9.36054 0.0271925C9.34949 0.0316242 9.33872 0.0366578 9.32817 0.0421839C9.31768 0.0476552 9.30746 0.0536737 9.29753 0.0601845C9.28759 0.0666954 9.27805 0.073644 9.26878 0.0810849C9.25958 0.0884712 9.25076 0.0963499 9.24233 0.104612C9.23385 0.112873 9.22587 0.121518 9.21827 0.1306C9.21074 0.139628 9.2036 0.148984 9.19701 0.158723C9.19037 0.168462 9.18423 0.178474 9.17859 0.188815C9.17296 0.199101 9.16788 0.209661 9.1633 0.220494C9.15872 0.231273 9.15471 0.242325 9.15125 0.253486C9.14779 0.264702 9.14488 0.276028 9.14259 0.287518C9.14025 0.298953 9.13852 0.310552 9.13735 0.322151C9.13618 0.333805 9.13556 0.345514 9.13556 0.357168V1.95392C8.43624 2.04846 7.46662 2.36919 7.47276 3.20264V3.91911C7.17774 3.99538 6.88825 4.08817 6.60422 4.19738C6.32019 4.30658 6.04353 4.43149 5.7743 4.57216C5.50506 4.71278 5.24498 4.86822 4.99411 5.03843C4.74323 5.20859 4.50324 5.39242 4.27408 5.58988C4.26509 5.59765 4.25655 5.60575 4.2484 5.61434C4.24026 5.62287 4.23255 5.63179 4.2253 5.64109C4.21804 5.6504 4.21129 5.66003 4.20498 5.66993C4.19868 5.67989 4.19293 5.69012 4.18763 5.70062C4.18238 5.71113 4.17763 5.72185 4.17345 5.73279C4.16926 5.74379 4.16564 5.7549 4.16257 5.76622C4.1595 5.77749 4.15698 5.78893 4.15503 5.80047C4.15313 5.81207 4.15179 5.82367 4.15101 5.83533C4.15023 5.84703 4.15006 5.85869 4.15051 5.8704C4.1509 5.88211 4.15191 5.89376 4.15347 5.90536C4.15503 5.91696 4.15721 5.92845 4.15994 5.93983C4.16268 5.95121 4.16597 5.96248 4.16982 5.97353C4.17367 5.98464 4.17808 5.99547 4.18299 6.00614C4.18796 6.01676 4.19343 6.02715 4.1994 6.03727C4.20537 6.04739 4.21185 6.05724 4.21882 6.06671C4.2258 6.07623 4.23322 6.08537 4.24115 6.09417C4.24902 6.10293 4.25733 6.11135 4.26604 6.11929C4.2748 6.12728 4.2839 6.13483 4.29339 6.14194C4.30288 6.14905 4.3127 6.15567 4.32286 6.16185C4.33296 6.16798 4.3434 6.17367 4.35411 6.17882C4.36483 6.18396 4.37582 6.18861 4.38698 6.19271C4.39815 6.19682 4.40953 6.20032 4.42109 6.20333C4.43258 6.20634 4.44425 6.2088 4.45602 6.21066C4.4678 6.21257 4.47969 6.21389 4.49158 6.2146C4.50352 6.21536 4.51541 6.21553 4.52735 6.21509C4.53929 6.21471 4.55118 6.21372 4.56301 6.21214C4.57485 6.2106 4.58657 6.20847 4.59818 6.20579C4.60979 6.20311 4.62123 6.19988 4.63256 6.1961C4.64383 6.19227 4.65494 6.18795 4.66576 6.18314C4.67665 6.17827 4.68725 6.17291 4.69758 6.167C4.7079 6.16114 4.71789 6.1548 4.72755 6.14796C4.73726 6.14112 4.74658 6.13379 4.75551 6.12607C5.1674 5.77361 5.61456 5.47132 6.09706 5.2192C5.79662 5.53298 5.52895 5.8716 5.29393 6.23506C5.28751 6.24496 5.28159 6.25509 5.27618 6.26554C5.27082 6.27599 5.26591 6.28666 5.26161 6.2976C5.25726 6.30849 5.25352 6.31959 5.25028 6.33086C5.24704 6.34213 5.24442 6.35351 5.24236 6.36506C5.24029 6.37655 5.23878 6.38815 5.23789 6.39986C5.23694 6.41151 5.23661 6.42322 5.23689 6.43493C5.23717 6.44664 5.238 6.45829 5.23945 6.46989C5.24085 6.48154 5.24286 6.49303 5.24548 6.50447C5.24805 6.5159 5.25123 6.52717 5.25491 6.53828C5.25865 6.54944 5.26289 6.56033 5.26769 6.57105C5.27255 6.58178 5.27785 6.59223 5.28371 6.6024C5.28957 6.61264 5.29594 6.62248 5.3028 6.63211C5.30967 6.64169 5.31698 6.65094 5.32473 6.6598C5.33255 6.66866 5.34075 6.67714 5.34935 6.68524C5.358 6.69334 5.36704 6.701 5.37642 6.70822C5.38579 6.71544 5.39556 6.72217 5.40561 6.72846C5.41571 6.73476 5.42609 6.74056 5.43675 6.74581C5.44741 6.75112 5.45829 6.75588 5.4694 6.76009C5.48056 6.7643 5.49183 6.76802 5.50339 6.77114C5.51489 6.77431 5.52649 6.77689 5.53827 6.77891C5.55005 6.78093 5.56188 6.78236 5.57377 6.78323C5.58565 6.78411 5.5976 6.78444 5.60954 6.78416C5.62149 6.78389 5.63337 6.78307 5.64521 6.78165C5.65709 6.78022 5.66881 6.77825 5.68048 6.77568C5.69214 6.77316 5.70364 6.77005 5.71497 6.76638C5.7263 6.76271 5.73746 6.75856 5.7484 6.7538C5.75928 6.74909 5.76994 6.74384 5.78038 6.73809C5.79076 6.73229 5.80086 6.72606 5.81063 6.71933C5.8204 6.7126 5.82977 6.70543 5.83882 6.69782C5.84791 6.69016 5.85656 6.68212 5.86477 6.67364C5.87303 6.66516 5.88084 6.65635 5.88821 6.64711C5.89552 6.63786 5.90244 6.62834 5.9088 6.61844C5.97355 6.5124 6.04225 6.40888 6.11492 6.30783C6.18753 6.20683 6.26388 6.10856 6.34402 6.01314C6.42411 5.91772 6.50772 5.82531 6.5949 5.73602C6.68202 5.64668 6.77244 5.56067 6.86609 5.47794C6.9598 5.39521 7.05646 5.31604 7.1562 5.24043C7.25588 5.16476 7.35835 5.09287 7.4635 5.0247C7.5687 4.95658 7.67631 4.89234 7.78637 4.83205C7.89643 4.77181 8.00867 4.71562 8.12297 4.66353C7.29935 6.02277 6.84728 8.56584 6.80782 11.0653H4.58802C4.60398 10.5731 4.65717 10.0847 4.74753 9.6003C4.74976 9.58876 4.75138 9.57716 4.75244 9.56551C4.7535 9.5538 4.75395 9.54215 4.75384 9.53038C4.75372 9.51867 4.753 9.50696 4.75171 9.49531C4.75043 9.48366 4.74853 9.47211 4.74608 9.46062C4.74362 9.44913 4.74061 9.43781 4.73704 9.42665C4.73341 9.41548 4.72928 9.40449 4.72459 9.39371C4.7199 9.38293 4.71466 9.37237 4.70891 9.36208C4.70316 9.35185 4.69691 9.34184 4.69015 9.33215C4.6834 9.32253 4.67615 9.31317 4.6685 9.3042C4.6608 9.29522 4.65265 9.28663 4.64411 9.27843C4.63557 9.27022 4.62658 9.26251 4.61726 9.25517C4.60794 9.24784 4.59829 9.24095 4.58824 9.23455C4.5782 9.22815 4.56787 9.22229 4.55727 9.21687C4.54666 9.21146 4.53578 9.20659 4.52473 9.20221C4.51362 9.19789 4.50229 9.19406 4.49079 9.19083C4.4793 9.18755 4.46769 9.18487 4.45597 9.18273C4.44419 9.18054 4.43236 9.17901 4.42042 9.17803C4.40853 9.17699 4.39658 9.17661 4.38464 9.17672C4.37264 9.17688 4.36075 9.17764 4.34887 9.1789C4.33698 9.18022 4.3252 9.18208 4.31348 9.18454C4.30176 9.187 4.29021 9.19001 4.27882 9.19357C4.26744 9.19712 4.25627 9.20117 4.24528 9.20582C4.23428 9.21047 4.22357 9.21562 4.21308 9.22131C4.20264 9.22694 4.19248 9.23312 4.1826 9.2398C4.17278 9.24642 4.16329 9.25353 4.15414 9.26114C4.14498 9.26869 4.13628 9.27668 4.12796 9.2851C4.11959 9.29347 4.11172 9.30228 4.10424 9.31147C4.09682 9.32061 4.08984 9.33013 4.08337 9.33998C4.07684 9.34983 4.07087 9.35995 4.0654 9.3704C4.05993 9.3808 4.05496 9.39146 4.05055 9.40235C4.04614 9.41329 4.04229 9.42435 4.039 9.43562C4.03571 9.44689 4.03303 9.45832 4.03085 9.46981C3.93262 9.99741 3.87541 10.5292 3.85928 11.0653H2.32005C2.29946 10.7152 2.56953 10.1639 2.0723 10.0624C1.45212 10.011 1.63413 10.9947 1.57854 11.4224C1.58551 19.7778 13.397 22.1627 16.7821 14.4794C18.7232 10.223 16.1021 5.02141 11.5272 3.91943ZM16.1642 14.0607C15.6686 14.2515 15.1677 14.418 14.6637 14.5661C14.807 14.1144 14.9187 13.6553 14.9985 13.1887C15.0783 12.7222 15.1257 12.2525 15.1405 11.7796H16.6743C16.6553 12.1712 16.603 12.5584 16.5173 12.9413C16.4317 13.3241 16.314 13.6973 16.1642 14.0607ZM2.8357 14.0607C2.6859 13.6973 2.56819 13.3241 2.48258 12.9413C2.39696 12.5584 2.34461 12.1712 2.32558 11.7796H3.85945C3.8743 12.2525 3.92157 12.7221 4.00144 13.1887C4.08125 13.6552 4.19287 14.1143 4.33625 14.566C3.83222 14.418 3.33131 14.2515 2.8357 14.0607ZM4.58824 11.7796H6.80782C6.82267 12.9149 6.92826 14.042 7.12466 15.1609C6.471 15.078 5.82514 14.9556 5.18699 14.7939C5.0051 14.3106 4.86395 13.8161 4.76349 13.3105C4.66309 12.8048 4.60465 12.2945 4.58824 11.7796ZM10.8723 4.6562C11.013 4.72328 11.1504 4.7961 11.2846 4.87467C11.4189 4.95324 11.5495 5.03733 11.6764 5.1269C11.8033 5.21647 11.9261 5.31112 12.0448 5.41103C12.1634 5.51088 12.2774 5.61554 12.3869 5.72497C12.4964 5.8344 12.601 5.9482 12.7005 6.06643C12.8001 6.18467 12.8943 6.30679 12.9832 6.43296C13.0721 6.55907 13.1553 6.68869 13.2328 6.8218C13.3104 6.95492 13.382 7.09105 13.4476 7.23013C13.0768 7.15101 12.7105 7.08011 12.3566 7.0266C12.1464 6.99514 11.935 6.975 11.724 6.95038C11.6418 6.54917 11.5293 6.15633 11.3865 5.77175C11.2437 5.38723 11.0723 5.01539 10.8723 4.6562ZM10.9632 6.87159C9.98719 6.79675 9.01127 6.79844 8.03546 6.87657C8.91243 3.56883 10.0848 3.56391 10.9632 6.87159ZM12.2412 7.73245C12.7479 7.80763 13.2745 7.91672 13.8125 8.04623C13.9946 8.53033 14.136 9.02554 14.2365 9.53202C14.337 10.0384 14.3954 10.5495 14.4117 11.0653H12.1921C12.1772 9.93143 12.0719 8.80576 11.876 7.6883C11.9976 7.70438 12.1199 7.71385 12.2412 7.73245ZM9.49996 18.4719C9.02584 18.4719 8.44489 17.5733 8.03752 15.9769C8.52442 16.0145 9.01188 16.0336 9.49996 16.0341C9.98775 16.0341 10.4752 16.015 10.9624 15.9769C10.555 17.5733 9.97408 18.4719 9.49996 18.4719ZM7.87422 15.244C7.66029 14.0987 7.54878 12.9439 7.53957 11.7796H11.4603C11.4511 12.9439 11.3396 14.0987 11.1257 15.244C10.0419 15.3412 8.95802 15.3412 7.87422 15.244ZM6.64256 15.8183C6.85403 15.8489 7.06573 15.8775 7.27764 15.902C7.35991 16.3019 7.47226 16.6935 7.61475 17.0768C7.75723 17.4601 7.92819 17.8308 8.12771 18.1889C7.98723 18.1219 7.84988 18.0492 7.71577 17.9707C7.58165 17.8922 7.45116 17.8083 7.32436 17.7188C7.19755 17.6294 7.07488 17.5348 6.95634 17.4351C6.83779 17.3353 6.72377 17.2308 6.61438 17.1216C6.50493 17.0122 6.40051 16.8986 6.30099 16.7805C6.20154 16.6625 6.10733 16.5405 6.01853 16.4144C5.92968 16.2885 5.84646 16.159 5.76894 16.0261C5.69142 15.8932 5.61981 15.7572 5.55412 15.6183C5.91639 15.6956 6.27923 15.7623 6.64256 15.8183ZM10.8726 18.1881C11.072 17.8302 11.2429 17.4596 11.3853 17.0764C11.5277 16.6932 11.6401 16.3017 11.7223 15.9019C11.9342 15.8775 12.1458 15.8487 12.3574 15.8183C12.7205 15.7628 13.0833 15.6961 13.4457 15.6183C13.38 15.7572 13.3084 15.8931 13.2309 16.026C13.1533 16.1589 13.0702 16.2883 12.9813 16.4142C12.8925 16.5402 12.7984 16.6621 12.6989 16.7802C12.5994 16.8982 12.495 17.0118 12.3856 17.1211C12.2762 17.2303 12.1622 17.3348 12.0437 17.4345C11.9252 17.5342 11.8025 17.6288 11.6758 17.7182C11.549 17.8076 11.4186 17.8915 11.2845 17.97C11.1504 18.0485 11.0131 18.1212 10.8726 18.1881ZM12.2615 15.1098C12.1328 15.1282 12.004 15.1446 11.8753 15.1609C12.0717 14.042 12.1772 12.9149 12.192 11.7796H14.4117C14.3953 12.2945 14.3368 12.8049 14.2364 13.3105C14.136 13.8162 13.9948 14.3107 13.8129 14.794C13.2971 14.9197 12.7797 15.0301 12.2615 15.1098ZM15.1403 11.0653C15.1257 10.593 15.0786 10.1238 14.999 9.65781C14.9196 9.19176 14.8084 8.73316 14.6656 8.28188C15.1717 8.43081 15.6734 8.59561 16.1645 8.78497C16.3142 9.14826 16.4318 9.5213 16.5175 9.90407C16.603 10.2868 16.6553 10.6738 16.6743 11.0653H15.1403ZM15.7025 7.85889C15.2568 7.70657 14.8071 7.56738 14.353 7.4469C14.2673 7.24162 14.1726 7.04038 14.0688 6.84336C13.9649 6.64628 13.8523 6.45419 13.731 6.26696C13.6097 6.07973 13.4801 5.89814 13.3423 5.72223C13.2045 5.54633 13.059 5.37677 12.9058 5.21357C13.0503 5.28973 13.1919 5.37059 13.3307 5.45627C13.4696 5.54195 13.6052 5.63218 13.7377 5.72694C13.8703 5.82176 13.9993 5.92084 14.1249 6.02436C14.2505 6.12782 14.3723 6.23539 14.4904 6.347C14.6084 6.45867 14.7224 6.57417 14.8324 6.6935C14.9424 6.81283 15.048 6.93572 15.1494 7.06216C15.2508 7.1886 15.3476 7.31827 15.4399 7.45123C15.5322 7.58418 15.6197 7.72009 15.7025 7.85889ZM8.2015 3.20264C8.20138 3.17813 8.20451 3.154 8.21087 3.13031C8.21718 3.10656 8.22656 3.08407 8.23889 3.06274C8.25128 3.04145 8.26624 3.02203 8.28376 3.00457C8.30129 2.98707 8.32088 2.97213 8.34242 2.95966C8.38584 2.93383 8.4301 2.90943 8.4752 2.8865C8.52035 2.86358 8.56617 2.84224 8.61283 2.82243C8.65943 2.80257 8.70665 2.78435 8.75453 2.76767C8.80242 2.75103 8.85081 2.73599 8.89976 2.72258C8.9487 2.70912 8.99804 2.69736 9.04777 2.68729C9.09755 2.67717 9.14762 2.66875 9.19796 2.66202C9.2483 2.65523 9.29881 2.6502 9.34949 2.64681C9.40017 2.64347 9.45095 2.64183 9.50174 2.64183C9.55253 2.64188 9.60332 2.64363 9.654 2.64708C9.70467 2.65053 9.75518 2.65567 9.80553 2.66251C9.85587 2.66935 9.90588 2.67783 9.9556 2.688C10.0053 2.69824 10.0547 2.71005 10.1036 2.72357C10.1525 2.73703 10.2009 2.75218 10.2487 2.76893C10.2966 2.78567 10.3438 2.804 10.3904 2.82386C10.4369 2.84377 10.4828 2.86522 10.5278 2.8882C10.5729 2.91118 10.6171 2.93564 10.6605 2.96162C10.8784 3.07067 10.7768 3.46072 10.7984 3.76476C10.3685 3.69527 9.93562 3.6607 9.4999 3.66102C9.06412 3.6613 8.63136 3.69648 8.2015 3.76651V3.20264ZM7.87371 7.60355C8.9573 7.50331 10.0411 7.50129 11.125 7.59736C11.3394 8.74377 11.4512 9.89975 11.4603 11.0653H7.53957C7.54878 9.90188 7.66018 8.74798 7.87371 7.60355ZM3.30005 14.9906C3.74638 15.1431 4.19549 15.2792 4.64735 15.3989C4.73291 15.6041 4.82762 15.8052 4.93143 16.0022C5.03529 16.1992 5.14781 16.3911 5.26909 16.5783C5.39037 16.7654 5.51985 16.9469 5.6576 17.1227C5.79534 17.2986 5.94078 17.468 6.09393 17.6312C5.94966 17.5551 5.80818 17.4744 5.66954 17.3888C5.5309 17.3033 5.39539 17.2132 5.26306 17.1186C5.13073 17.024 5.00186 16.925 4.8764 16.8217C4.75099 16.7185 4.62932 16.6111 4.51139 16.4996C4.39346 16.3882 4.27955 16.2729 4.16971 16.1538C4.05982 16.0347 3.95422 15.9121 3.85292 15.7859C3.75162 15.6597 3.65485 15.5302 3.56259 15.3975C3.47033 15.2649 3.38282 15.1292 3.30005 14.9906ZM12.9055 17.6314C13.0587 17.4683 13.2042 17.2988 13.342 17.1229C13.4798 16.9471 13.6094 16.7656 13.7307 16.5785C13.852 16.3913 13.9646 16.1993 14.0684 16.0022C14.1723 15.8053 14.267 15.6041 14.3526 15.3989C14.8044 15.2795 15.2535 15.1435 15.6999 14.9906C15.6171 15.1292 15.5296 15.2649 15.4373 15.3975C15.3451 15.5303 15.2482 15.6597 15.1469 15.786C15.0456 15.9122 14.94 16.0348 14.8301 16.154C14.7203 16.2731 14.6063 16.3884 14.4884 16.4998C14.3704 16.6113 14.2488 16.7187 14.1233 16.822C13.9978 16.9253 13.8689 17.0242 13.7365 17.1188C13.6042 17.2135 13.4687 17.3035 13.33 17.3891C13.1913 17.4746 13.0498 17.5554 12.9055 17.6314Z" fill="white"/>
	<path d="M18.7782 4.31701C18.4378 4.15342 17.8895 4.05335 17.7931 3.76167L17.4981 3.06211C17.491 3.04608 17.4828 3.03059 17.4734 3.01577C17.4641 3.00088 17.4537 2.98677 17.4422 2.97336C17.4307 2.96001 17.4184 2.94748 17.4051 2.93588C17.3918 2.92429 17.3777 2.91367 17.3628 2.9041C17.3479 2.89447 17.3324 2.88599 17.3162 2.8786C17.3001 2.87127 17.2835 2.86503 17.2664 2.86005C17.2494 2.85507 17.232 2.8513 17.2144 2.84873C17.1967 2.84621 17.179 2.84495 17.1612 2.84495C17.1434 2.84495 17.1256 2.84626 17.108 2.84878C17.0904 2.8513 17.073 2.85507 17.056 2.86011C17.0389 2.86514 17.0223 2.87132 17.0062 2.87871C16.99 2.8861 16.9745 2.89458 16.9596 2.90421C16.9447 2.91378 16.9307 2.92439 16.9173 2.93605C16.904 2.94765 16.8917 2.96018 16.8802 2.97353C16.8688 2.98693 16.8584 3.00105 16.849 3.01593C16.8397 3.03081 16.8315 3.04624 16.8245 3.06227C16.6574 3.39548 16.5541 3.93456 16.2564 4.02922L15.5441 4.31723C15.5278 4.32412 15.512 4.33217 15.4968 4.3413C15.4817 4.35049 15.4672 4.36067 15.4536 4.37189C15.4399 4.3831 15.4272 4.39525 15.4153 4.40827C15.4035 4.42135 15.3927 4.43514 15.3829 4.44974C15.3731 4.46435 15.3644 4.47956 15.3569 4.49537C15.3494 4.51119 15.343 4.52749 15.3379 4.54418C15.3328 4.56092 15.3289 4.57794 15.3264 4.59523C15.3238 4.61252 15.3225 4.62986 15.3225 4.64731C15.3225 4.66482 15.3237 4.68217 15.3264 4.69945C15.3289 4.71674 15.3328 4.73376 15.3379 4.75045C15.343 4.76719 15.3493 4.78349 15.3568 4.79931C15.3643 4.81517 15.373 4.83038 15.3828 4.84494C15.3926 4.85955 15.4034 4.87339 15.4152 4.88641C15.427 4.89949 15.4398 4.91158 15.4534 4.92285C15.4671 4.93406 15.4815 4.94424 15.4967 4.95343C15.5118 4.96263 15.5276 4.97067 15.544 4.97756C15.8905 5.14438 16.4366 5.24407 16.5316 5.53586L16.8242 6.23252C16.8311 6.24877 16.8391 6.26447 16.8483 6.27957C16.8575 6.29467 16.8678 6.30901 16.8792 6.32263C16.8905 6.33625 16.9028 6.349 16.9161 6.36082C16.9294 6.37264 16.9435 6.38347 16.9584 6.39327C16.9733 6.403 16.9889 6.4117 17.0051 6.41925C17.0213 6.42675 17.038 6.4331 17.0552 6.43819C17.0723 6.44333 17.0898 6.44716 17.1075 6.44978C17.1253 6.45236 17.1431 6.45367 17.1611 6.45367C17.179 6.45367 17.1969 6.45236 17.2146 6.44978C17.2324 6.44721 17.2499 6.44338 17.267 6.43824C17.2842 6.43315 17.3009 6.42686 17.3171 6.41931C17.3333 6.41176 17.3489 6.40311 17.3638 6.39332C17.3787 6.38358 17.3928 6.37275 17.4061 6.36093C17.4194 6.34911 17.4317 6.33642 17.4431 6.3228C17.4545 6.30917 17.4647 6.29484 17.4739 6.27974C17.4831 6.26463 17.4912 6.24893 17.4981 6.23268L17.7918 5.53449C17.8046 5.50434 17.8202 5.47578 17.8387 5.4487C17.8572 5.42156 17.8782 5.3965 17.9017 5.37347C17.9252 5.35043 17.9508 5.32981 17.9785 5.3117C18.0061 5.29353 18.0352 5.27821 18.0659 5.26568L18.7784 4.97756C18.7947 4.97061 18.8105 4.96257 18.8256 4.95343C18.8408 4.94424 18.8552 4.93406 18.8689 4.92285C18.8826 4.91158 18.8953 4.89943 18.9071 4.88641C18.919 4.87333 18.9298 4.85955 18.9396 4.84494C18.9494 4.83033 18.9581 4.81512 18.9656 4.79931C18.9732 4.78344 18.9795 4.76713 18.9846 4.75039C18.9897 4.7337 18.9935 4.71669 18.9961 4.6994C18.9987 4.68211 19 4.66471 19 4.64726C18.9999 4.62975 18.9987 4.61241 18.9961 4.59512C18.9935 4.57783 18.9896 4.56081 18.9845 4.54407C18.9794 4.52733 18.9731 4.51102 18.9655 4.49521C18.958 4.4794 18.9493 4.46419 18.9395 4.44958C18.9297 4.43497 18.9189 4.42118 18.907 4.40811C18.8952 4.39508 18.8824 4.38294 18.8688 4.37172C18.8551 4.36051 18.8407 4.35028 18.8255 4.34114C18.8104 4.332 18.7946 4.32396 18.7782 4.31701ZM17.1614 5.17064C17.1319 5.11489 17.0982 5.06171 17.0603 5.01105C17.0225 4.96038 16.9808 4.91289 16.9355 4.86852C16.8901 4.82415 16.8416 4.78349 16.7898 4.74645C16.7381 4.70941 16.6837 4.67653 16.6268 4.64775C16.6838 4.61886 16.7382 4.58582 16.7899 4.54872C16.8417 4.51157 16.8903 4.47075 16.9356 4.42627C16.981 4.38179 17.0226 4.33419 17.0605 4.28342C17.0983 4.23264 17.132 4.1793 17.1614 4.12343C17.1908 4.1793 17.2243 4.23259 17.2621 4.28336C17.2998 4.33408 17.3413 4.38174 17.3865 4.42616C17.4318 4.47064 17.4803 4.51146 17.532 4.54856C17.5837 4.58565 17.6379 4.6187 17.6948 4.64759C17.638 4.67642 17.5838 4.70941 17.5322 4.74645C17.4805 4.78349 17.432 4.8242 17.3868 4.86857C17.3416 4.91295 17.3 4.96049 17.2622 5.0111C17.2245 5.06177 17.1909 5.11495 17.1614 5.17064Z" fill="white"/>
	<path d="M1.40037 7.87567C1.74161 8.04035 2.29174 8.14184 2.3878 8.43379L2.6807 9.13062C2.68773 9.14665 2.69593 9.16214 2.70525 9.17702C2.71463 9.1919 2.72501 9.20602 2.73645 9.21942C2.74789 9.23283 2.76028 9.2453 2.77357 9.25695C2.78691 9.26855 2.80097 9.27917 2.81587 9.2888C2.83077 9.29843 2.84629 9.30691 2.86242 9.31429C2.87861 9.32168 2.89518 9.32792 2.91226 9.3329C2.92934 9.33793 2.9467 9.34171 2.96433 9.34422C2.98197 9.34679 2.99966 9.34805 3.01752 9.34805C3.03532 9.34805 3.05307 9.34679 3.07071 9.34428C3.08835 9.34176 3.1057 9.33799 3.12278 9.33295C3.13986 9.32797 3.15644 9.32173 3.17262 9.31435C3.18875 9.30702 3.20427 9.29848 3.21917 9.28891C3.23407 9.27928 3.24819 9.26866 3.26147 9.25706C3.27481 9.24546 3.2872 9.23294 3.29864 9.21959C3.31009 9.20618 3.32047 9.19207 3.32984 9.17718C3.33922 9.1623 3.34742 9.14682 3.35446 9.13079C3.5215 8.79736 3.62447 8.2586 3.92234 8.16384L4.63461 7.87567C4.65096 7.86877 4.66676 7.86073 4.68188 7.85154C4.69706 7.8424 4.71152 7.83217 4.72514 7.82095C4.73881 7.80974 4.75154 7.79759 4.76342 7.78457C4.77526 7.77149 4.78608 7.75765 4.79585 7.74304C4.80567 7.72849 4.81432 7.71328 4.82186 7.69741C4.82939 7.6816 4.8357 7.66529 4.84084 7.64855C4.84591 7.63181 4.84976 7.61479 4.85239 7.5975C4.85496 7.58021 4.85624 7.56281 4.85624 7.54536C4.85624 7.52791 4.8549 7.51051 4.85233 7.49322C4.84977 7.47593 4.84591 7.45891 4.84078 7.44217C4.83564 7.42543 4.82934 7.40918 4.8218 7.39331C4.81421 7.3775 4.80556 7.36229 4.79574 7.34768C4.78597 7.33313 4.77514 7.31929 4.76326 7.30627C4.75142 7.29319 4.73864 7.28104 4.72497 7.26983C4.71135 7.25861 4.6969 7.24843 4.68172 7.23924C4.66654 7.2301 4.6508 7.22206 4.63439 7.21517L3.92362 6.92825C3.62643 6.83469 3.522 6.29423 3.35446 5.96005C3.34737 5.94402 3.33916 5.92859 3.32984 5.9137C3.32047 5.89882 3.31009 5.88471 3.29864 5.87136C3.28715 5.85795 3.27476 5.84548 3.26147 5.83388C3.24813 5.82228 3.23407 5.81166 3.21917 5.80204C3.20427 5.79246 3.18875 5.78398 3.17262 5.77659C3.15649 5.76921 3.13986 5.76302 3.12278 5.75805C3.10576 5.75301 3.0884 5.74924 3.07077 5.74672C3.05313 5.7442 3.03538 5.74294 3.01758 5.74294C2.99977 5.74294 2.98202 5.7442 2.96444 5.74677C2.94681 5.74929 2.92945 5.75307 2.91237 5.7581C2.89529 5.76308 2.87872 5.76932 2.86259 5.7767C2.8464 5.78409 2.83094 5.79257 2.81604 5.80214C2.80114 5.81177 2.78707 5.82239 2.77373 5.83399C2.76045 5.84559 2.74806 5.85812 2.73662 5.87152C2.72518 5.88487 2.7148 5.89899 2.70542 5.91387C2.6961 5.92875 2.6879 5.94418 2.68086 5.96027C2.51376 6.29374 2.41051 6.83272 2.11276 6.92738L1.40054 7.21533C1.38419 7.22228 1.36839 7.23032 1.35321 7.23946C1.33809 7.2486 1.32369 7.25883 1.31002 7.27004C1.29634 7.28126 1.28362 7.29341 1.27178 7.30643C1.2599 7.31945 1.24907 7.33329 1.2393 7.3479C1.22948 7.36246 1.22083 7.37767 1.21329 7.39348C1.20576 7.40934 1.19945 7.42559 1.19432 7.44234C1.18924 7.45908 1.18539 7.47604 1.18276 7.49333C1.1802 7.51062 1.17891 7.52802 1.17891 7.54547C1.17891 7.56292 1.1802 7.58032 1.18276 7.59756C1.18533 7.61485 1.18918 7.63186 1.19426 7.64861C1.1994 7.66535 1.2057 7.6816 1.21324 7.69746C1.22077 7.71328 1.22942 7.72849 1.23919 7.7431C1.24896 7.75765 1.25978 7.77149 1.27162 7.78457C1.2835 7.79759 1.29623 7.80974 1.30985 7.82095C1.32352 7.83217 1.33792 7.8424 1.3531 7.85154C1.36823 7.86073 1.38402 7.86877 1.40037 7.87567ZM3.01786 7.02154C3.04716 7.0774 3.08076 7.13069 3.11848 7.18141C3.15621 7.23218 3.19774 7.27978 3.243 7.32427C3.28826 7.36875 3.33671 7.40951 3.38839 7.44666C3.44007 7.48375 3.49438 7.5168 3.55125 7.54569C3.49438 7.57452 3.44018 7.60752 3.3885 7.64456C3.33688 7.6816 3.28843 7.7223 3.24317 7.76668C3.1979 7.81105 3.15638 7.85854 3.1186 7.9092C3.08087 7.95987 3.04727 8.01305 3.01786 8.06875C2.98833 8.013 2.95468 7.95981 2.91678 7.90915C2.87888 7.85849 2.8373 7.81099 2.79193 7.76662C2.74655 7.72225 2.698 7.6816 2.64626 7.64456C2.59447 7.60757 2.54011 7.57463 2.48318 7.54585C2.54016 7.51697 2.59452 7.48397 2.64632 7.44682C2.69811 7.40973 2.74667 7.36891 2.79204 7.32443C2.83742 7.27995 2.879 7.23229 2.91689 7.18152C2.95473 7.13075 2.98839 7.07745 3.01786 7.02154Z" fill="white"/>
	<path d="M3.4557 17.8671C3.11625 17.7039 2.56718 17.6033 2.47057 17.3116L2.17554 16.6119C2.16851 16.5959 2.16031 16.5805 2.15093 16.5656C2.14155 16.5507 2.13117 16.5366 2.11973 16.5232C2.10829 16.5098 2.0959 16.4974 2.08256 16.4858C2.06928 16.4742 2.05516 16.4636 2.04026 16.454C2.02541 16.4444 2.00989 16.4359 1.99371 16.4285C1.97758 16.4211 1.96095 16.4149 1.94393 16.4099C1.92685 16.4049 1.90949 16.4011 1.89185 16.3986C1.87422 16.3961 1.85652 16.3948 1.83866 16.3948C1.82086 16.3948 1.80317 16.3962 1.78553 16.3987C1.7679 16.4012 1.75054 16.405 1.73346 16.41C1.71644 16.415 1.6998 16.4212 1.68368 16.4286C1.66755 16.436 1.65203 16.4445 1.63713 16.4541C1.62223 16.4637 1.60816 16.4743 1.59482 16.4859C1.58154 16.4975 1.56915 16.51 1.55771 16.5234C1.54627 16.5368 1.53589 16.5509 1.52651 16.5658C1.51719 16.5806 1.50898 16.5961 1.50195 16.6122C1.33301 16.9498 1.23154 17.4855 0.934011 17.5793L0.22163 17.8672C0.205277 17.8742 0.189483 17.8822 0.174358 17.8914C0.159177 17.9005 0.144777 17.9107 0.131104 17.9219C0.11743 17.9332 0.104705 17.9453 0.0928724 17.9583C0.0809845 17.9714 0.0701571 17.9852 0.06039 17.9998C0.0505671 18.0143 0.0419163 18.0296 0.0343817 18.0454C0.0268471 18.0612 0.0205404 18.0775 0.0154057 18.0942C0.0103268 18.111 0.00647584 18.128 0.00385269 18.1453C0.00128535 18.1625 1.67548e-06 18.1799 1.67548e-06 18.1974C-5.41327e-05 18.2148 0.00128535 18.2322 0.00385269 18.2495C0.00642004 18.2668 0.010271 18.2838 0.0153499 18.3005C0.0204846 18.3172 0.0267913 18.3335 0.0343259 18.3494C0.0418605 18.3652 0.0505113 18.3804 0.0602784 18.395C0.0701013 18.4096 0.0808729 18.4234 0.0927608 18.4365C0.104593 18.4495 0.117318 18.4616 0.130992 18.4729C0.14461 18.4841 0.159009 18.4943 0.17419 18.5035C0.189371 18.5126 0.20511 18.5207 0.221463 18.5276L0.935072 18.8168C1.23177 18.9095 1.33351 19.4455 1.50178 19.7825C1.50882 19.7986 1.51702 19.814 1.52634 19.8289C1.53572 19.8438 1.5461 19.858 1.55754 19.8714C1.56898 19.8847 1.58137 19.8972 1.59466 19.9089C1.60799 19.9205 1.62206 19.9311 1.63696 19.9407C1.65186 19.9503 1.66738 19.9589 1.68351 19.9662C1.69969 19.9736 1.71627 19.9798 1.73335 19.9848C1.75043 19.9899 1.76778 19.9937 1.78542 19.9962C1.80306 19.9987 1.8208 20 1.83861 20C1.85641 20 1.87416 19.9987 1.8918 19.9962C1.90943 19.9937 1.92679 19.9899 1.94387 19.9849C1.96095 19.9799 1.97758 19.9737 1.99371 19.9663C2.00984 19.9589 2.02541 19.9504 2.04026 19.9408C2.05516 19.9312 2.06928 19.9206 2.08256 19.909C2.0959 19.8974 2.10829 19.8849 2.11973 19.8715C2.13117 19.8581 2.14161 19.844 2.15093 19.8291C2.16031 19.8142 2.16851 19.7988 2.17554 19.7827C2.34259 19.4495 2.44584 18.9104 2.74365 18.8157L3.45587 18.5276C3.47222 18.5207 3.48801 18.5126 3.50319 18.5035C3.51838 18.4943 3.53277 18.4841 3.54645 18.4729C3.56007 18.4616 3.57285 18.4495 3.58468 18.4365C3.59657 18.4234 3.60734 18.4096 3.61716 18.395C3.62693 18.3804 3.63564 18.3652 3.64317 18.3494C3.6507 18.3335 3.65701 18.3172 3.66209 18.3004C3.66723 18.2837 3.67108 18.2667 3.67364 18.2494C3.67621 18.2321 3.67749 18.2148 3.67749 18.1973C3.67749 18.1798 3.67621 18.1624 3.67364 18.1451C3.67102 18.1278 3.66717 18.1108 3.66203 18.0941C3.65696 18.0774 3.65059 18.0611 3.64306 18.0453C3.63552 18.0294 3.62687 18.0142 3.61705 17.9996C3.60723 17.985 3.5964 17.9712 3.58457 17.9582C3.57268 17.9451 3.55996 17.933 3.54628 17.9217C3.53261 17.9105 3.51821 17.9003 3.50303 17.8912C3.48785 17.882 3.47205 17.874 3.4557 17.8671ZM1.83911 18.7206C1.80964 18.6649 1.77593 18.6117 1.73809 18.5611C1.7002 18.5104 1.65862 18.4629 1.61324 18.4186C1.56792 18.3742 1.51937 18.3335 1.46763 18.2965C1.41589 18.2595 1.36159 18.2266 1.30466 18.1977C1.36181 18.1692 1.41639 18.1364 1.4683 18.0994C1.5202 18.0624 1.56887 18.0217 1.61425 17.9772C1.65962 17.9327 1.70114 17.885 1.73887 17.8341C1.7766 17.7832 1.80998 17.7297 1.83911 17.6736C1.86847 17.7295 1.90201 17.7827 1.9398 17.8335C1.97752 17.8842 2.01905 17.9318 2.06431 17.9762C2.10957 18.0207 2.15802 18.0615 2.2097 18.0986C2.26138 18.1357 2.31563 18.1687 2.3725 18.1976C2.31569 18.2264 2.26144 18.2594 2.20981 18.2965C2.15813 18.3335 2.10969 18.3742 2.06442 18.4186C2.01922 18.4629 1.97769 18.5104 1.93991 18.5611C1.90212 18.6118 1.86852 18.6649 1.83911 18.7206Z" fill="white"/>
</svg>
